<svg width="100" height="100" viewBox="0 0 100 100" fill="none" xmlns="http://www.w3.org/2000/svg">
<g clip-path="url(#clip0_1_2)">
<rect width="100" height="100" fill="white"/>
<rect width="100" height="100" fill="#005CFF"/>
<path d="M85.7829 73.0788C85.7385 72.9526 85.6865 72.8292 85.6273 72.7092L63.547 28.1779C62.4127 25.5609 60.0505 23.6769 57.2429 23.15C54.4354 22.623 51.5489 23.5219 49.5397 25.5489L44.1144 35.8591L31.0943 63.2322C28.9445 67.3679 25.5546 70.1064 21.516 71.0651L41.4524 30.9979C41.4924 30.9164 41.5293 30.8337 41.5634 30.7498C41.8892 30.0186 42.6163 29.5479 43.4181 29.5489C43.4934 29.5502 43.5687 29.5558 43.6434 29.5656L46.9225 23.7441C44.8217 22.8091 42.4332 22.7531 40.2908 23.5885C38.1484 24.4239 36.4305 26.0811 35.521 28.1898L13.4175 72.6188C13.3835 72.6825 13.3519 72.7473 13.322 72.8146C12.8309 73.8999 12.9051 75.1567 13.5205 76.1769C14.1359 77.1971 15.2141 77.8506 16.4049 77.925C17.0065 77.975 17.6152 78 18.2167 78C26.1299 78 33.1338 73.5864 36.9501 66.1915C36.9662 66.1599 36.9823 66.1284 36.9971 66.0957L49.4205 39.9739L49.4241 39.9656L49.5343 39.7347L53.171 32.1089L53.1657 32.0976L53.713 30.9468C53.736 30.8984 53.7577 30.8498 53.778 30.801C54.0928 30.043 54.8339 29.5489 55.6559 29.5489C56.478 29.5489 57.2191 30.043 57.5339 30.801C57.5608 30.867 57.5935 30.9325 57.6228 30.9967L77.4888 71.0633C73.4789 70.1017 70.1056 67.3649 67.9588 63.2334L54.8845 35.7115L51.2746 43.3974L62.0548 66.0909C62.0703 66.123 62.0864 66.1558 62.1025 66.1879C65.9777 73.6929 72.7837 77.9964 80.7816 77.9964C81.4129 77.9964 82.052 77.9685 82.681 77.9137C83.0793 77.8796 83.4679 77.7727 83.8275 77.5983C85.5765 76.8457 86.4339 74.8622 85.7823 73.0758" fill="white"/>
</g>
<defs>
<clipPath id="clip0_1_2">
<rect width="100" height="100" fill="white"/>
</clipPath>
</defs>
</svg>
